<svg xmlns="http://www.w3.org/2000/svg" viewBox="0 0 800 360" role="img" aria-label="Audio modality illustration">
  <defs>
    <linearGradient id="bg" x1="0" y1="0" x2="1" y2="1">
      <stop offset="0%" stop-color="#eef2ff"/>
      <stop offset="100%" stop-color="#f0fdf4"/>
    </linearGradient>
  </defs>
  <rect width="800" height="360" fill="url(#bg)"/>
  <rect x="40" y="40" width="720" height="280" rx="18" fill="#ffffff" stroke="#cbd5e1"/>
  <text x="70" y="95" fill="#334155" font-size="24" font-family="Arial, Helvetica, sans-serif">Audio Modality</text>
  <polyline fill="none" stroke="#2563eb" stroke-width="4"
    points="70,220 95,220 120,180 145,260 170,170 195,230 220,200 245,220 270,210 295,220 320,190 345,250 370,175 395,220 420,210 445,220 470,205 495,220 520,180 545,250 570,185 595,220 620,208 645,220 670,200 695,220 720,210"/>
  <circle cx="150" cy="145" r="22" fill="#22c55e" opacity="0.9"/>
  <circle cx="200" cy="145" r="16" fill="#2563eb" opacity="0.75"/>
  <circle cx="238" cy="145" r="10" fill="#0ea5e9" opacity="0.7"/>
</svg>
